<svg fill="#000000" xmlns="http://www.w3.org/2000/svg"  viewBox="0 0 64 64" width="128px" height="128px"><path d="M 9 6 C 7.346 6 6 7.346 6 9 L 6 55 C 6 56.654 7.346 58 9 58 L 55 58 C 56.654 58 58 56.654 58 55 L 58 9 C 58 7.346 56.654 6 55 6 L 9 6 z M 9 8 L 55 8 C 55.551 8 56 8.449 56 9 L 56 55 C 56 55.551 55.551 56 55 56 L 9 56 C 8.449 56 8 55.551 8 55 L 8 9 C 8 8.449 8.449 8 9 8 z M 14 12 C 12.897 12 12 12.897 12 14 L 12 50 C 12 51.103 12.897 52 14 52 L 17 52 C 17.552 52 18 51.552 18 51 C 18 50.448 17.552 50 17 50 L 14 50 L 14 14 L 50 14 L 50 50 L 47 50 C 46.448 50 46 50.448 46 51 C 46 51.552 46.448 52 47 52 L 50 52 C 51.103 52 52 51.103 52 50 L 52 14 C 52 12.897 51.103 12 50 12 L 14 12 z M 21.921875 23.044922 C 21.793031 23.0615 21.666375 23.104078 21.546875 23.173828 C 21.068875 23.451828 20.905594 24.063016 21.183594 24.541016 L 25.810547 32.423828 L 21.136719 40.419922 C 20.858719 40.897922 21.020047 41.507156 21.498047 41.785156 C 21.976047 42.063156 22.587234 41.902828 22.865234 41.423828 L 26.970703 34.400391 L 31.142578 41.507812 C 31.420578 41.985813 32.031766 42.148141 32.509766 41.869141 C 32.987766 41.592141 33.147141 40.981906 32.869141 40.503906 L 28.126953 32.421875 L 32.720703 24.560547 C 32.998703 24.082547 32.837375 23.471359 32.359375 23.193359 C 31.881375 22.915359 31.270188 23.076688 30.992188 23.554688 L 26.966797 30.443359 L 22.912109 23.535156 C 22.703609 23.176656 22.308406 22.995188 21.921875 23.044922 z M 41.958984 24 C 41.405984 24 40.958984 24.447 40.958984 25 L 40.958984 30 L 38.958984 30 C 36.752984 30 34.958984 31.794 34.958984 34 L 34.958984 38 C 34.958984 40.206 36.752984 42 38.958984 42 L 39.958984 42 C 40.420984 42 40.854094 41.885266 41.246094 41.697266 C 41.427094 41.883266 41.678984 42 41.958984 42 C 42.511984 42 42.958984 41.553 42.958984 41 L 42.958984 39 L 42.958984 31 L 42.958984 25 C 42.958984 24.447 42.511984 24 41.958984 24 z M 38.958984 32 L 40.958984 32 L 40.958984 39 C 40.958984 39.552 40.510984 40 39.958984 40 L 38.958984 40 C 37.855984 40 36.958984 39.103 36.958984 38 L 36.958984 34 C 36.958984 32.897 37.855984 32 38.958984 32 z M 22 48 C 21.448 48 21 48.448 21 49 L 21 51 C 21 51.552 21.448 52 22 52 C 22.552 52 23 51.552 23 51 L 23 49 C 23 48.448 22.552 48 22 48 z M 27 48 C 26.448 48 26 48.448 26 49 L 26 51 C 26 51.552 26.448 52 27 52 C 27.552 52 28 51.552 28 51 L 28 49 C 28 48.448 27.552 48 27 48 z M 32 48 C 31.448 48 31 48.448 31 49 L 31 51 C 31 51.552 31.448 52 32 52 C 32.552 52 33 51.552 33 51 L 33 49 C 33 48.448 32.552 48 32 48 z M 37 48 C 36.448 48 36 48.448 36 49 L 36 51 C 36 51.552 36.448 52 37 52 C 37.552 52 38 51.552 38 51 L 38 49 C 38 48.448 37.552 48 37 48 z M 42 48 C 41.448 48 41 48.448 41 49 L 41 51 C 41 51.552 41.448 52 42 52 C 42.552 52 43 51.552 43 51 L 43 49 C 43 48.448 42.552 48 42 48 z"/></svg>